<svg id="Capa_1" data-name="Capa 1" xmlns="http://www.w3.org/2000/svg" xmlns:xlink="http://www.w3.org/1999/xlink" viewBox="0 0 184.29 58.01"><defs><style>.cls-1{fill:none;}.cls-2{clip-path:url(#clip-path);}.cls-3{fill:#f9423e;}.cls-4{fill:url(#radial-gradient);}.cls-5{font-size:30.55px;font-family:Raleway-ExtraBold, Raleway;font-weight:800;}.cls-10,.cls-11,.cls-5{fill:#fff;}.cls-6{letter-spacing:-0.01em;}.cls-7{letter-spacing:-0.01em;}.cls-8{fill:#ff6969;}.cls-9{fill:#3f2a28;}.cls-11{font-size:7.37px;font-family:Roboto-Light, Roboto;font-weight:300;}.cls-12{letter-spacing:-0.01em;}</style><clipPath id="clip-path"><rect class="cls-1" x="-243.67" y="214.92" width="612" height="148.5"/></clipPath><radialGradient id="radial-gradient" cx="34.56" cy="77.61" r="303.61" gradientUnits="userSpaceOnUse"><stop offset="0.01" stop-color="#3b3b42"/><stop offset="0.1" stop-color="#35343b"/><stop offset="0.53" stop-color="#1e191d"/><stop offset="1" stop-color="#0d0c10"/></radialGradient></defs><title>Artboard 33</title><g class="cls-2"><polygon class="cls-3" points="122.56 -16.44 -646.55 -54.44 -537.34 401.36 64.72 317.73 122.56 -16.44"/><polygon class="cls-4" points="-298.98 -192.79 -284.95 348.01 368.09 257.09 368.09 -181.31 -298.98 -192.79"/></g><text class="cls-5" transform="translate(110.46 46.33)"><tspan class="cls-6">M</tspan><tspan x="26.06" y="0">ark</tspan></text><text class="cls-5" transform="translate(0 46.33)"><tspan class="cls-7">F</tspan><tspan x="16.95" y="0">umi</tspan></text><path class="cls-8" d="M83.58,21.34S80,21,77.8,25.7s1.12,7.36,1.51,7.26S83.58,21.34,83.58,21.34Z"/><path class="cls-3" d="M91.48,18.74h0c-6.14-.5-11.71,4.77-13.13,11-.86,3.76-.8,8.75,1.21,12.17s7.39,5.86,11.28,6.65c4.08.82,7.4-1.14,10.49-3.62,3.57-2.86,7.41-6.63,7.88-11.45C110.07,24.45,99.18,18.82,91.48,18.74Z"/><path class="cls-9" d="M83.39,39.09c-.77-2.23-4.32-3.15-5.66-2.19A10.61,10.61,0,0,0,74,46.39c.26,1.67,1.15,5.19,4,6a76.33,76.33,0,0,1,4-8.23C83,42.72,84,40.91,83.39,39.09Z"/><path class="cls-9" d="M88.47,41.34c-1.2.83-1.65,2.32-2.1,3.63a29.22,29.22,0,0,1-5.11,8.91c4.31,2,10.9-.6,13.67-5.17,1.29-2.13,1.58-4.72-1.41-6.83C91.78,40.65,89.51,40.64,88.47,41.34Z"/><path class="cls-8" d="M86.22,23.51c-1.84-3.47-5.13-5.74-7.31-9.06-1-1.5-1.55-4.64-3.16-6a2.8,2.8,0,0,0-2.58-.72,28.6,28.6,0,0,0-13.5-4.07c-2.07-.13-9.45-.85-10.28,1.85-1.06,3.44,5.1,2.29,6.37,2.13a51.94,51.94,0,0,1,8.7-.8,22.68,22.68,0,0,1,8,2.25c0,.07.5,3.11,4,8.05,2,2.79,5.77,4.78,7.14,7.91.57,1.3,1,2.43,2.68,1.31C87.55,25.45,86.84,24.68,86.22,23.51Z"/><path class="cls-8" d="M98.13,16.09c-.47-3.09-.06-2.67-2.25-4.14a10.1,10.1,0,0,0-3.06-4.42A60,60,0,0,1,85.94.79C85-.34,82.3-1,84.61,4.12c1,2.34,6.31,7.67,10.1,8.7A54.24,54.24,0,0,1,95.88,21c.16,1.47,0,5.56,0,7.89,0,1,2.34,1,2.34-.82C98.22,23.23,98.86,20.92,98.13,16.09Z"/><path class="cls-8" d="M105,30.87a3.88,3.88,0,0,0-5.22-.17,10.72,10.72,0,0,0-5,8c-.29,4.16,4.63,2.7,6.66,1.16S107.11,33.61,105,30.87Z"/><path class="cls-10" d="M103,31.77c-1.64-2.1-5,1.72-5.76,3.42-.44,1-1.35,4.35.82,4.21.86-.06,1.79-1.09,2.34-1.66a13.18,13.18,0,0,0,2.05-2.91C102.87,33.94,103.62,32.63,103,31.77Z"/><path class="cls-10" d="M81.84,26a8.11,8.11,0,0,0-1.75,6.55.39.39,0,0,0,.75,0c.24-1.06.25-2.16.47-3.22s.65-2.07.87-3.13A.2.2,0,0,0,81.84,26Z"/><text class="cls-11" transform="translate(1.74 56.02)">Cont<tspan class="cls-12" x="15.32" y="0">r</tspan><tspan x="17.73" y="0">ol de Plagas</tspan></text></svg>